# xmcd
#
# Track frame offsets:
#	150
#	11827
#	22924
#	40506
#	60860
#	78670
#	88854
#	106824
#	123527
#	139024
#	157116
#	175086
#	196373
#	210286
#	228898
#	247228
#
# Disc length: 3491 seconds
#
# Revision: 1
# Processed by: cddbd v1.5.2PL0 Copyright (c) Steve Scherf et al.
# Submitted via: audiograbber 1.83.01
#
DISCID=c90da110
DTITLE=Nana Mouskouri - Greatest HLits
DYEAR=2011
DGENRE=Schlager
TTITLE0=Guten Morgen Sonnenschein
TTITLE1=Glück ist wie ein Schmetterling
TTITLE2=Lieder die die Liebe schreibt
TTITLE3=Sag mir wo die Blumen sind
TTITLE4=Weil der Sommer ein Winter war
TTITLE5=Träume sind die Freunde der Nacht
TTITLE6=La Provence
TTITLE7=Die Welt ist voll Licht
TTITLE8=Liebe lebt
TTITLE9=Lied der Freiheit
TTITLE10=Alles was du brauchst ist Liebe
TTITLE11=Ich lebe im Traum
TTITLE12=Spuren im Sand
TTITLE13=Vergiss die Freunde nicht
TTITLE14=Mein Herz hat noch Platz für dich
TTITLE15=Am Ziel meiner Reise
EXTD=
EXTT0=
EXTT1=
EXTT2=
EXTT3=
EXTT4=
EXTT5=
EXTT6=
EXTT7=
EXTT8=
EXTT9=
EXTT10=
EXTT11=
EXTT12=
EXTT13=
EXTT14=
EXTT15=
PLAYORDER=
